# xmcd
#
# Track frame offsets:
#	150
#	18525
#	36957
#	54975
#	73887
#	92207
#	110735
#	127637
#	145367
#	163515
#	181897
#	201310
#
# Disc length: 2890 seconds
#
# Revision: 9
# Processed by: cddbd v1.5.2PL0 Copyright (c) Steve Scherf et al.
# Submitted via: EasyCDDAExtractor 15.3.0.1
#
DISCID=ab0b480c
DTITLE=Ana Gabriel - Silueta
DYEAR=1992
DGENRE=Latin
TTITLE0=Tu Y Yo
TTITLE1=Todavia Tenemos Tiempo
TTITLE2=Amandole
TTITLE3=Llena De Romance
TTITLE4=Mal Contigo, Peor Sin Ti
TTITLE5=Que Bien Me Siento
TTITLE6=Silueta
TTITLE7=Todo Termino
TTITLE8=Hay Que Hablar
TTITLE9=Quiero Yo Saber
TTITLE10=Evidencias
TTITLE11=Te Amo
EXTD=
EXTT0=
EXTT1=
EXTT2=
EXTT3=
EXTT4=
EXTT5=
EXTT6=
EXTT7=
EXTT8=
EXTT9=
EXTT10=
EXTT11=
PLAYORDER=
